<?xml version="1.0" encoding="iso-8859-1"?>
<!-- Generator: Adobe Illustrator 16.0.0, SVG Export Plug-In . SVG Version: 6.00 Build 0)  -->
<!DOCTYPE svg PUBLIC "-//W3C//DTD SVG 1.1//EN" "http://www.w3.org/Graphics/SVG/1.1/DTD/svg11.dtd">
<svg xmlns="http://www.w3.org/2000/svg" xmlns:xlink="http://www.w3.org/1999/xlink" version="1.1" id="Capa_1" x="0px" y="0px" width="512px" height="512px" viewBox="0 0 612 612" style="enable-background:new 0 0 612 612;" xml:space="preserve">
<g>
	<path d="M612,322.734c0-42.475-50.465-79.976-127.663-103.021c18.653-78.423,11.425-140.896-25.329-162.133   c-8.842-5.107-18.893-7.557-29.87-7.557c-34.679,0-78.662,24.567-123.122,66.624c-40.415-38.218-80.35-61.86-113.341-65.862   c-4.779-19.595-22.328-34.216-43.4-34.216c-24.732,0-44.79,20.058-44.79,44.804c0,15.309,7.691,28.794,19.4,36.875   c-9.334,30.317-7.826,72.732,3.778,121.465C50.465,242.758,0,280.26,0,322.734s50.465,79.977,127.663,103.021   c-18.654,78.423-11.425,140.896,25.33,162.118c8.841,5.107,18.893,7.557,29.87,7.557c34.679,0,78.662-24.567,123.123-66.624   c44.461,42.057,88.445,66.624,123.124,66.624c10.991,0,21.028-2.449,29.869-7.557c36.755-21.237,43.983-83.71,25.329-162.118   c18.744-5.601,35.859-12.037,51.093-19.206c8.14,8.185,19.385,13.262,31.811,13.262c24.732,0,44.775-20.057,44.775-44.804   c0-9.126-2.764-17.608-7.453-24.688C609.297,341.433,612,332.218,612,322.734z M429.123,79.909c5.914,0,10.798,1.165,14.935,3.555   c20.476,11.829,27.092,60.337,11.246,128.529c-24.18-5.616-50.405-9.842-78.064-12.59c-16.279-22.716-33.155-43.475-50.211-61.696   C367.277,99.802,404.331,79.909,429.123,79.909z M180.816,358.31c4.839,9.274,9.932,18.594,15.309,27.898   c5.391,9.334,10.947,18.369,16.592,27.24c-17.145-2.404-33.29-5.391-48.314-8.9C168.868,389.807,174.349,374.334,180.816,358.31z    M164.403,240.921c15.024-3.51,31.169-6.497,48.299-8.901c-5.63,8.871-11.201,17.892-16.578,27.226   c-5.362,9.304-10.469,18.609-15.308,27.898C174.349,271.135,168.868,255.662,164.403,240.921z M196.513,322.734   c7.542-15.816,15.936-31.99,25.479-48.538c9.499-16.458,19.266-31.871,29.153-46.328c17.488-1.374,35.724-2.21,54.855-2.21   c19.132,0,37.367,0.821,54.855,2.195c9.887,14.457,19.654,29.87,29.153,46.328c9.543,16.548,17.937,32.722,25.479,48.539   c-7.542,15.815-15.936,31.99-25.479,48.538c-9.499,16.458-19.267,31.871-29.168,46.343c-17.489,1.389-35.709,2.21-54.841,2.21   c-19.131,0-37.352-0.821-54.841-2.195c-9.902-14.457-19.669-29.885-29.167-46.343C212.448,354.725,204.055,338.551,196.513,322.734   z M399.298,232.035c17.146,2.404,33.29,5.392,48.3,8.901c-4.466,14.741-9.947,30.198-16.429,46.223   c-4.839-9.274-9.932-18.594-15.309-27.898C410.484,249.927,404.929,240.892,399.298,232.035z M415.876,386.208   c5.361-9.305,10.469-18.609,15.308-27.898c6.467,16.024,11.963,31.497,16.429,46.238c-15.024,3.51-31.169,6.496-48.314,8.901   C404.929,404.577,410.484,395.542,415.876,386.208z M306,158.795c10.574,11.35,21.268,23.985,31.916,37.68   c-10.499-0.448-21.133-0.687-31.916-0.687s-21.417,0.239-31.916,0.702C284.733,182.78,295.411,170.16,306,158.795z    M152.739,105.836c16.354-1.27,30.183-11.201,36.889-25.33c24.523,3.091,58.544,22.566,95.344,57.2   c-17.041,18.221-33.917,38.965-50.211,61.696c-27.659,2.748-53.885,6.975-78.064,12.59   C145.958,165.799,145.465,128.626,152.739,105.836z M135.474,396.736C68.536,376.381,29.87,346.406,29.87,322.734   c0-23.657,38.667-53.646,105.604-74.002c7.229,23.776,16.697,48.643,28.167,74.002C152.171,348.094,142.703,372.96,135.474,396.736   z M182.877,565.561c-5.914,0-10.798-1.165-14.935-3.555c-20.476-11.829-27.092-60.337-11.246-128.515   c24.18,5.615,50.405,9.857,78.064,12.59c16.279,22.716,33.155,43.476,50.196,61.682   C244.708,545.667,207.669,565.561,182.877,565.561z M306,486.674c-10.574-11.35-21.252-23.985-31.901-37.681   c10.484,0.448,21.118,0.688,31.901,0.688s21.417-0.239,31.9-0.702C327.252,462.688,316.574,475.324,306,486.674z M444.058,562.021   c-4.137,2.39-9.021,3.555-14.935,3.555c-24.792,0-61.846-19.894-102.095-57.798c17.041-18.206,33.917-38.965,50.196-61.681   c27.659-2.748,53.899-6.975,78.064-12.591C471.149,501.684,464.533,550.177,444.058,562.021z M579.979,332.277   c-4.062-1.225-8.289-2.075-12.77-2.075c-24.731,0-44.774,20.058-44.774,44.805c0,1.463,0.299,2.837,0.434,4.271   c-13.367,6.318-28.974,12.188-46.343,17.475c-7.229-23.776-16.697-48.644-28.167-74.003c11.47-25.359,20.938-50.226,28.167-74.002   c66.938,20.356,105.604,50.346,105.604,74.002C582.13,325.811,581.264,329.022,579.979,332.277z" fill="#e30712"/>
	<path d="M306,389.941c37.054,0,67.191-30.153,67.191-67.207c0-37.053-30.153-67.207-67.191-67.207   c-37.053,0-67.192,30.153-67.192,67.207C238.808,359.788,268.947,389.941,306,389.941z M306,285.397   c20.61,0,37.322,16.712,37.322,37.337S326.61,360.071,306,360.071c-20.61,0-37.322-16.712-37.322-37.337   S285.39,285.397,306,285.397z" fill="#e30712"/>
</g>
<g>
</g>
<g>
</g>
<g>
</g>
<g>
</g>
<g>
</g>
<g>
</g>
<g>
</g>
<g>
</g>
<g>
</g>
<g>
</g>
<g>
</g>
<g>
</g>
<g>
</g>
<g>
</g>
<g>
</g>
</svg>
